<svg id="Layer_1" data-name="Layer 1" xmlns="http://www.w3.org/2000/svg" viewBox="0 0 2000 628.97">
  <title>modal-header</title>
  <g>
    <path d="M1000,91.62a170.64,170.64,0,1,0,170.63,170.63A170.63,170.63,0,0,0,1000,91.62Zm0,332.75a162.12,162.12,0,1,1,162.12-162.12A162.12,162.12,0,0,1,1000,424.37Z" fill="#0f9fda"/>
    <path d="M1000,126.68a136,136,0,0,0-31.4,3.7v154l52.92-62.22H1062l-48.55,62.22L1062,358H1020.8l-27-49.34-25.23,30V358H938V141.68a135.55,135.55,0,1,0,62-15Z" fill="#0f9fda"/>
  </g>
  <g>
    <polygon points="923.23 480.92 862.16 480.92 862.16 492.39 885.91 492.39 885.91 537.35 899.49 537.35 899.49 492.39 923.23 492.39 923.23 480.92" fill="#0f9fda"/>
    <polygon points="1026.65 480.92 1013.07 480.92 1013.07 537.35 1061.37 537.35 1061.37 526.05 1026.65 526.05 1026.65 480.92" fill="#0f9fda"/>
    <polygon points="1093.48 506.37 1075.11 480.92 1058.93 480.92 1086.66 518.33 1086.66 537.35 1100.23 537.35 1100.23 518.33 1127.31 480.92 1111.86 480.92 1093.48 506.37" fill="#0f9fda"/>
    <path d="M1197.6,506.39a14.12,14.12,0,0,0-6-2.36,66,66,0,0,0-8.42-.77l-25-1c-1-.05-1.87-.12-2.69-.2a5.6,5.6,0,0,1-2.07-.57,3.14,3.14,0,0,1-1.34-1.38,5.72,5.72,0,0,1-.49-2.64q0-3.24,1.87-4.26a9.79,9.79,0,0,1,4.72-1h22.68a20.37,20.37,0,0,1,3.46.24,5,5,0,0,1,2.11.81,2.84,2.84,0,0,1,1.06,1.47,7.22,7.22,0,0,1,.29,2.19h14.55c0-5.44-1.71-9.46-5.13-12.09s-8.67-3.93-15.77-3.93h-24.8a43.72,43.72,0,0,0-9.31.86,15.25,15.25,0,0,0-6.3,2.8,11.39,11.39,0,0,0-3.58,5.08,22.34,22.34,0,0,0-1.13,7.6,25.46,25.46,0,0,0,1.09,8.34,8.76,8.76,0,0,0,3.62,4.63,16.49,16.49,0,0,0,6.46,2.16q3.95.57,9.72.81l21.63.9a29.66,29.66,0,0,1,4.76.57,7.21,7.21,0,0,1,2.84,1.18,4.15,4.15,0,0,1,1.43,1.86,7.74,7.74,0,0,1,.4,2.65q0,3.4-2.19,4.55a15.06,15.06,0,0,1-6.67,1.14h-22.6a8.06,8.06,0,0,1-4.72-1.3,4,4,0,0,1-1.87-3.42h-13.82a24.07,24.07,0,0,0,.93,7.08,10.89,10.89,0,0,0,3.17,5,14.19,14.19,0,0,0,5.9,3,35.14,35.14,0,0,0,9,1h28a35.27,35.27,0,0,0,8.95-1,13.4,13.4,0,0,0,5.89-3.09,11.9,11.9,0,0,0,3.21-5.31,26.53,26.53,0,0,0,1-7.75,25.94,25.94,0,0,0-1.22-8.85A10.49,10.49,0,0,0,1197.6,506.39Z" fill="#0f9fda"/>
    <polygon points="1216.26 480.92 1216.26 492.39 1240 492.39 1240 537.35 1253.58 537.35 1253.58 492.39 1277.32 492.39 1277.32 480.92 1216.26 480.92" fill="#0f9fda"/>
    <polygon points="816.96 480.92 787.85 537.35 803.62 537.35 827.65 489.72 851.6 537.35 867.45 537.35 838.34 480.92 816.96 480.92" fill="#0f9fda"/>
    <polygon points="949.9 480.92 920.79 537.35 936.56 537.35 960.59 489.72 984.53 537.35 1000.39 537.35 971.28 480.92 949.9 480.92" fill="#0f9fda"/>
    <polygon points="763.93 480.92 736 511.6 736 480.92 722.68 480.92 722.68 537.35 736 537.35 736 529.56 748.23 515.68 764.32 537.35 778.74 537.35 756.63 506.93 778.74 480.92 763.93 480.92" fill="#0f9fda"/>
  </g>
</svg>
